# xmcd CD database file
#
# Track frame offsets:
#	150
#	18282
#	37087
#	53689
#	67637
#	81512
#	110737
#	123385
#	137277
#	151315
#	166247
#	182340
#	196022
#
# Disc length: 2769 seconds
#
# Revision: 0
# Processed by: cddbd v1.5.2PL0 Copyright (c) Steve Scherf et al.
# Submitted via: CDex 1.51
#
DISCID=9b0acf0d
DTITLE=ALCEU VALENÇA - FORRÓ DE TODOS OS TEMPOS
DYEAR=1999
DGENRE=mpb
TTITLE0=EU QUERO VER VC DIZER QUE EU SOU RUIM
TTITLE1=O TEMPO E O VENTO
TTITLE2=FORRÓ DE OLINDA
TTITLE3=FORRÓ CALANGUEADO
TTITLE4=VOU PRA CAMPINAS
TTITLE5=POUTPOURRI- BAIÃO.VEM MORENA.O CANTO DA EMA.
TTITLE6=XOTE DAS MENINAS
TTITLE7=ESSA MENINA
TTITLE8=ARREPIANDO
TTITLE9=RIMA COM RIMA
TTITLE10=PETROLINA JUAZEIRO
TTITLE11=CANTIGA DO SAPO
TTITLE12=COCO DO RALA COCO
EXTD=YEAR: 1999
EXTT0=
EXTT1=
EXTT2=
EXTT3=
EXTT4=
EXTT5=
EXTT6=
EXTT7=
EXTT8=
EXTT9=
EXTT10=
EXTT11=
EXTT12=
PLAYORDER=
